<?xml version="1.0" standalone="no"?>
<!DOCTYPE svg PUBLIC "-//W3C//DTD SVG 20010904//EN"
 "http://www.w3.org/TR/2001/REC-SVG-20010904/DTD/svg10.dtd">
<svg version="1.0" xmlns="http://www.w3.org/2000/svg"
 width="1600.000000pt" height="1600.000000pt" viewBox="0 0 1600.000000 1600.000000"
 preserveAspectRatio="xMidYMid meet">
<metadata>
Created by potrace 1.14, written by Peter Selinger 2001-2017
</metadata>
<g transform="translate(0.000000,1600.000000) scale(0.100000,-0.100000)"
fill="#000000" stroke="none">
<path d="M1003 9667 l0 -5835 3241 -1620 3241 -1620 3 3349 2 3349 430 0 430
0 2 -3349 3 -3349 3235 1616 c1779 889 3237 1618 3240 1620 3 2 5 1171 6 2598
l1 2594 -1514 0 -1513 0 0 -865 0 -865 647 -2 648 -3 0 -1073 c0 -591 -2
-1077 -5 -1080 -7 -9 -2997 -1502 -3008 -1502 -5 0 -9 759 -9 1830 l0 1830
433 0 432 0 0 865 0 865 -432 0 -433 0 1 1932 1 1932 70 12 c39 7 81 14 95 17
14 3 54 10 90 17 36 6 108 20 160 30 146 29 373 72 395 75 11 1 61 10 110 20
50 9 101 19 115 21 14 3 59 11 100 19 41 8 86 16 100 19 27 4 192 36 225 42
11 2 34 7 50 9 30 6 95 18 105 20 3 1 28 5 55 10 28 4 59 9 70 12 81 17 211
42 254 49 18 3 43 8 55 10 11 2 37 7 56 10 19 3 53 9 75 14 22 5 56 12 75 15
19 3 67 12 105 20 39 8 87 17 109 21 21 3 48 8 60 10 82 16 246 47 271 51 17
3 71 13 120 23 50 9 92 14 95 10 3 -5 5 -708 5 -1564 0 -1377 2 -1556 15
-1556 8 0 32 5 54 11 21 6 46 12 55 14 9 2 44 11 78 20 35 9 71 18 80 20 10 1
47 11 83 20 36 9 73 19 83 21 10 2 27 6 37 9 10 3 27 8 37 10 10 2 65 16 123
30 58 15 112 28 120 30 8 2 98 24 200 50 102 26 190 48 195 49 6 1 19 5 30 9
11 3 31 8 45 11 14 2 54 12 90 21 36 9 72 18 80 20 8 2 43 11 77 20 35 9 72
18 84 20 11 2 29 7 39 10 20 6 34 10 90 23 l35 8 1 2378 1 2377 -41 -5 c-57
-8 -128 -21 -276 -51 -41 -8 -91 -17 -110 -20 -19 -4 -53 -10 -75 -15 -22 -5
-56 -11 -75 -14 -19 -3 -45 -8 -56 -10 -12 -2 -37 -7 -55 -10 -19 -3 -45 -8
-59 -11 -14 -3 -37 -8 -51 -10 -14 -2 -75 -13 -135 -25 -60 -11 -125 -23 -144
-26 -19 -3 -42 -7 -51 -10 -15 -4 -157 -31 -209 -39 -14 -2 -97 -18 -184 -35
-88 -16 -173 -33 -190 -35 -17 -3 -103 -19 -191 -36 -88 -17 -171 -33 -185
-35 -14 -3 -36 -7 -50 -9 -77 -16 -275 -53 -320 -60 -19 -3 -66 -12 -105 -20
-38 -8 -86 -17 -105 -20 -19 -3 -46 -8 -60 -10 -14 -3 -36 -7 -50 -10 -14 -3
-59 -11 -100 -20 -41 -8 -91 -17 -110 -20 -19 -3 -116 -21 -215 -40 -99 -19
-196 -37 -215 -40 -19 -3 -66 -12 -105 -20 -99 -20 -234 -45 -275 -51 -19 -3
-43 -7 -52 -10 -10 -3 -28 -7 -40 -9 -46 -8 -144 -25 -168 -30 -14 -3 -86 -16
-160 -30 -74 -14 -146 -27 -160 -30 -14 -3 -38 -7 -55 -10 -16 -3 -43 -8 -60
-12 -16 -3 -37 -7 -45 -9 -44 -6 -97 -16 -112 -20 -10 -3 -30 -7 -45 -10 -24
-4 -67 -12 -163 -30 -14 -3 -50 -9 -80 -14 -30 -6 -66 -12 -80 -15 -68 -13
-138 -27 -160 -31 -123 -23 -199 -37 -220 -40 -14 -2 -36 -7 -50 -10 -14 -3
-36 -8 -50 -10 -51 -9 -197 -36 -250 -46 -30 -7 -62 -13 -70 -14 -8 -2 -31 -6
-50 -9 -19 -4 -46 -9 -60 -11 -14 -3 -95 -18 -180 -34 -85 -16 -168 -32 -185
-35 -16 -3 -43 -7 -60 -10 -16 -3 -54 -11 -82 -17 l-53 -11 0 -2634 0 -2633
-857 0 c-471 0 -854 2 -852 4 2 2 194 99 426 216 l423 211 0 2418 0 2419 -87
17 c-49 9 -133 25 -188 35 -55 11 -149 28 -210 40 -60 11 -123 23 -140 25 -16
3 -50 10 -75 15 -25 5 -58 12 -75 15 -16 3 -79 14 -140 26 -60 11 -144 26
-185 34 -109 20 -341 64 -370 70 -14 3 -50 9 -80 15 -30 6 -65 12 -78 14 -12
3 -86 17 -165 31 -78 14 -162 30 -187 35 -25 5 -58 12 -75 15 -16 3 -79 14
-140 26 -60 11 -132 24 -160 29 -27 5 -86 16 -130 25 -44 9 -93 18 -110 20
-16 3 -52 9 -80 15 -27 6 -99 19 -160 30 -60 12 -135 25 -165 31 -30 6 -64 12
-75 14 -11 2 -69 13 -130 25 -60 12 -119 23 -130 25 -11 1 -31 5 -45 8 -14 4
-42 9 -63 12 -21 3 -71 12 -110 19 -72 15 -370 71 -417 80 -14 2 -101 19 -195
36 -93 18 -181 34 -195 36 -14 3 -61 12 -105 20 -96 18 -183 34 -210 39 -26 4
-67 12 -135 25 -201 40 -320 62 -355 66 -21 3 -42 7 -46 10 -4 2 -24 6 -45 9
-22 3 -59 10 -84 15 -65 14 -315 60 -348 65 -23 3 -85 15 -207 39 -16 4 -43 9
-60 12 -87 15 -256 46 -295 55 -25 5 -63 12 -85 15 -22 3 -43 8 -46 10 -4 2
-29 6 -56 10 l-50 6 0 -5835z m1804 3768 c21 -4 81 -15 133 -25 52 -11 109
-21 125 -24 78 -13 148 -26 163 -30 10 -3 33 -7 52 -10 19 -3 44 -7 55 -10 30
-6 236 -45 270 -51 17 -2 41 -7 55 -10 14 -3 50 -9 80 -15 30 -6 66 -12 80
-15 27 -5 89 -17 210 -39 41 -7 68 -12 135 -26 28 -5 61 -12 75 -14 14 -3 99
-19 190 -36 91 -17 176 -33 190 -35 14 -2 86 -15 160 -29 74 -15 149 -29 165
-32 17 -2 37 -7 45 -9 8 -2 33 -6 55 -9 22 -3 60 -10 85 -16 25 -5 97 -19 160
-30 63 -12 158 -30 210 -40 52 -11 124 -24 160 -30 36 -6 72 -13 81 -16 14 -4
16 -185 16 -1934 l0 -1930 -1511 2 -1511 3 -1 2205 c0 1213 2 2209 4 2213 2 5
10 6 17 3 8 -3 31 -8 52 -11z m2950 -7979 l0 -1834 -36 17 c-20 9 -700 349
-1511 755 l-1475 738 1 1071 c1 590 2 1075 3 1080 0 4 680 7 1509 7 l1509 0 0
-1834z"/>
</g>
</svg>
